<svg id="my-svg" width="100%" xmlns="http://www.w3.org/2000/svg" xmlns:xlink="http://www.w3.org/1999/xlink" class="flowchart" style="max-width: 1389.64px; background-color: transparent;" viewBox="0 0 1389.63671875 556" role="graphics-document document" aria-roledescription="flowchart-v2"><style>#my-svg{font-family:"trebuchet ms",verdana,arial,sans-serif;font-size:16px;fill:#333;}@keyframes edge-animation-frame{from{stroke-dashoffset:0;}}@keyframes dash{to{stroke-dashoffset:0;}}#my-svg .edge-animation-slow{stroke-dasharray:9,5!important;stroke-dashoffset:900;animation:dash 50s linear infinite;stroke-linecap:round;}#my-svg .edge-animation-fast{stroke-dasharray:9,5!important;stroke-dashoffset:900;animation:dash 20s linear infinite;stroke-linecap:round;}#my-svg .error-icon{fill:#552222;}#my-svg .error-text{fill:#552222;stroke:#552222;}#my-svg .edge-thickness-normal{stroke-width:1px;}#my-svg .edge-thickness-thick{stroke-width:3.5px;}#my-svg .edge-pattern-solid{stroke-dasharray:0;}#my-svg .edge-thickness-invisible{stroke-width:0;fill:none;}#my-svg .edge-pattern-dashed{stroke-dasharray:3;}#my-svg .edge-pattern-dotted{stroke-dasharray:2;}#my-svg .marker{fill:#333333;stroke:#333333;}#my-svg .marker.cross{stroke:#333333;}#my-svg svg{font-family:"trebuchet ms",verdana,arial,sans-serif;font-size:16px;}#my-svg p{margin:0;}#my-svg .label{font-family:"trebuchet ms",verdana,arial,sans-serif;color:#333;}#my-svg .cluster-label text{fill:#333;}#my-svg .cluster-label span{color:#333;}#my-svg .cluster-label span p{background-color:transparent;}#my-svg .label text,#my-svg span{fill:#333;color:#333;}#my-svg .node rect,#my-svg .node circle,#my-svg .node ellipse,#my-svg .node polygon,#my-svg .node path{fill:#ECECFF;stroke:#9370DB;stroke-width:1px;}#my-svg .rough-node .label text,#my-svg .node .label text,#my-svg .image-shape .label,#my-svg .icon-shape .label{text-anchor:middle;}#my-svg .node .katex path{fill:#000;stroke:#000;stroke-width:1px;}#my-svg .rough-node .label,#my-svg .node .label,#my-svg .image-shape .label,#my-svg .icon-shape .label{text-align:center;}#my-svg .node.clickable{cursor:pointer;}#my-svg .root .anchor path{fill:#333333!important;stroke-width:0;stroke:#333333;}#my-svg .arrowheadPath{fill:#333333;}#my-svg .edgePath .path{stroke:#333333;stroke-width:2.0px;}#my-svg .flowchart-link{stroke:#333333;fill:none;}#my-svg .edgeLabel{background-color:rgba(232,232,232, 0.8);text-align:center;}#my-svg .edgeLabel p{background-color:rgba(232,232,232, 0.8);}#my-svg .edgeLabel rect{opacity:0.5;background-color:rgba(232,232,232, 0.8);fill:rgba(232,232,232, 0.8);}#my-svg .labelBkg{background-color:rgba(232, 232, 232, 0.5);}#my-svg .cluster rect{fill:#ffffde;stroke:#aaaa33;stroke-width:1px;}#my-svg .cluster text{fill:#333;}#my-svg .cluster span{color:#333;}#my-svg div.mermaidTooltip{position:absolute;text-align:center;max-width:200px;padding:2px;font-family:"trebuchet ms",verdana,arial,sans-serif;font-size:12px;background:hsl(80, 100%, 96.2745098039%);border:1px solid #aaaa33;border-radius:2px;pointer-events:none;z-index:100;}#my-svg .flowchartTitleText{text-anchor:middle;font-size:18px;fill:#333;}#my-svg rect.text{fill:none;stroke-width:0;}#my-svg .icon-shape,#my-svg .image-shape{background-color:rgba(232,232,232, 0.8);text-align:center;}#my-svg .icon-shape p,#my-svg .image-shape p{background-color:rgba(232,232,232, 0.8);padding:2px;}#my-svg .icon-shape .label rect,#my-svg .image-shape .label rect{opacity:0.5;background-color:rgba(232,232,232, 0.8);fill:rgba(232,232,232, 0.8);}#my-svg .label-icon{display:inline-block;height:1em;overflow:visible;vertical-align:-0.125em;}#my-svg .node .label-icon path{fill:currentColor;stroke:revert;stroke-width:revert;}#my-svg :root{--mermaid-font-family:"trebuchet ms",verdana,arial,sans-serif;}</style><g><marker id="my-svg_flowchart-v2-pointEnd" class="marker flowchart-v2" viewBox="0 0 10 10" refX="5" refY="5" markerUnits="userSpaceOnUse" markerWidth="8" markerHeight="8" orient="auto"><path d="M 0 0 L 10 5 L 0 10 z" class="arrowMarkerPath" style="stroke-width: 1; stroke-dasharray: 1, 0;"/></marker><marker id="my-svg_flowchart-v2-pointStart" class="marker flowchart-v2" viewBox="0 0 10 10" refX="4.5" refY="5" markerUnits="userSpaceOnUse" markerWidth="8" markerHeight="8" orient="auto"><path d="M 0 5 L 10 10 L 10 0 z" class="arrowMarkerPath" style="stroke-width: 1; stroke-dasharray: 1, 0;"/></marker><marker id="my-svg_flowchart-v2-circleEnd" class="marker flowchart-v2" viewBox="0 0 10 10" refX="11" refY="5" markerUnits="userSpaceOnUse" markerWidth="11" markerHeight="11" orient="auto"><circle cx="5" cy="5" r="5" class="arrowMarkerPath" style="stroke-width: 1; stroke-dasharray: 1, 0;"/></marker><marker id="my-svg_flowchart-v2-circleStart" class="marker flowchart-v2" viewBox="0 0 10 10" refX="-1" refY="5" markerUnits="userSpaceOnUse" markerWidth="11" markerHeight="11" orient="auto"><circle cx="5" cy="5" r="5" class="arrowMarkerPath" style="stroke-width: 1; stroke-dasharray: 1, 0;"/></marker><marker id="my-svg_flowchart-v2-crossEnd" class="marker cross flowchart-v2" viewBox="0 0 11 11" refX="12" refY="5.2" markerUnits="userSpaceOnUse" markerWidth="11" markerHeight="11" orient="auto"><path d="M 1,1 l 9,9 M 10,1 l -9,9" class="arrowMarkerPath" style="stroke-width: 2; stroke-dasharray: 1, 0;"/></marker><marker id="my-svg_flowchart-v2-crossStart" class="marker cross flowchart-v2" viewBox="0 0 11 11" refX="-1" refY="5.2" markerUnits="userSpaceOnUse" markerWidth="11" markerHeight="11" orient="auto"><path d="M 1,1 l 9,9 M 10,1 l -9,9" class="arrowMarkerPath" style="stroke-width: 2; stroke-dasharray: 1, 0;"/></marker><g class="root"><g class="clusters"><g class="cluster" id="subGraph2" data-look="classic"><rect style="" x="8" y="444" width="1353.42578125" height="104"/><g class="cluster-label" transform="translate(622.517578125, 444)"><foreignObject width="124.390625" height="24"><div xmlns="http://www.w3.org/1999/xhtml" style="display: table-cell; white-space: nowrap; line-height: 1.5;"><span class="nodeLabel"><p>Common Modules</p></span></div></foreignObject></g></g><g class="cluster" id="subGraph1" data-look="classic"><rect style="" x="150.84375" y="186" width="1230.79296875" height="208"/><g class="cluster-label" transform="translate(707.287109375, 186)"><foreignObject width="117.90625" height="24"><div xmlns="http://www.w3.org/1999/xhtml" style="display: table-cell; white-space: nowrap; line-height: 1.5;"><span class="nodeLabel"><p>Feature Modules</p></span></div></foreignObject></g></g><g class="cluster" id="subGraph0" data-look="classic"><rect style="" x="8" y="8" width="1321.70703125" height="104"/><g class="cluster-label" transform="translate(600.291015625, 8)"><foreignObject width="137.125" height="24"><div xmlns="http://www.w3.org/1999/xhtml" style="display: table-cell; white-space: nowrap; line-height: 1.5;"><span class="nodeLabel"><p>Terminal Consumer</p></span></div></foreignObject></g></g></g><g class="edgePaths"><path d="M730.77,68.938L819.655,76.115C908.54,83.292,1086.311,97.646,1175.197,110.99C1264.082,124.333,1264.082,136.667,1264.082,149C1264.082,161.333,1264.082,173.667,1264.082,188.5C1264.082,203.333,1264.082,220.667,1264.082,238C1264.082,255.333,1264.082,272.667,1264.082,284.833C1264.082,297,1264.082,304,1264.082,307.5L1264.082,311" id="L_TJ_CAT_0" class="edge-thickness-normal edge-pattern-solid edge-thickness-normal edge-pattern-solid flowchart-link" style=";" data-edge="true" data-et="edge" data-id="L_TJ_CAT_0" data-points="W3sieCI6NzMwLjc2OTUzMTI1LCJ5Ijo2OC45Mzc1fSx7IngiOjEyNjQuMDgyMDMxMjUsInkiOjExMn0seyJ4IjoxMjY0LjA4MjAzMTI1LCJ5IjoxNDl9LHsieCI6MTI2NC4wODIwMzEyNSwieSI6MTg2fSx7IngiOjEyNjQuMDgyMDMxMjUsInkiOjIzOH0seyJ4IjoxMjY0LjA4MjAzMTI1LCJ5IjoyOTB9LHsieCI6MTI2NC4wODIwMzEyNSwieSI6MzE1fV0=" marker-end="url(#my-svg_flowchart-v2-pointEnd)"/><path d="M730.77,71.865L793.171,78.554C855.573,85.243,980.376,98.622,1042.778,111.478C1105.18,124.333,1105.18,136.667,1105.18,149C1105.18,161.333,1105.18,173.667,1105.18,183.333C1105.18,193,1105.18,200,1105.18,203.5L1105.18,207" id="L_TJ_SUB_0" class="edge-thickness-normal edge-pattern-solid edge-thickness-normal edge-pattern-solid flowchart-link" style=";" data-edge="true" data-et="edge" data-id="L_TJ_SUB_0" data-points="W3sieCI6NzMwLjc2OTUzMTI1LCJ5Ijo3MS44NjUxMzY2OTEyMjY4fSx7IngiOjExMDUuMTc5Njg3NSwieSI6MTEyfSx7IngiOjExMDUuMTc5Njg3NSwieSI6MTQ5fSx7IngiOjExMDUuMTc5Njg3NSwieSI6MTg2fSx7IngiOjExMDUuMTc5Njg3NSwieSI6MjExfV0=" marker-end="url(#my-svg_flowchart-v2-pointEnd)"/><path d="M509.395,72.812L452.969,79.344C396.544,85.875,283.694,98.937,227.269,111.635C170.844,124.333,170.844,136.667,164.177,149C157.51,161.333,144.177,173.667,137.51,188.5C130.844,203.333,130.844,220.667,130.844,238C130.844,255.333,130.844,272.667,130.844,290C130.844,307.333,130.844,324.667,130.844,342C130.844,359.333,130.844,376.667,130.844,389.5C130.844,402.333,130.844,410.667,130.844,419C130.844,427.333,130.844,435.667,213.142,447.252C295.44,458.837,460.037,473.675,542.335,481.094L624.633,488.512" id="L_TJ_PRISMA_0" class="edge-thickness-normal edge-pattern-solid edge-thickness-normal edge-pattern-solid flowchart-link" style=";" data-edge="true" data-et="edge" data-id="L_TJ_PRISMA_0" data-points="W3sieCI6NTA5LjM5NDUzMTI1LCJ5Ijo3Mi44MTIyNDI5NDU5NTg4N30seyJ4IjoxNzAuODQzNzUsInkiOjExMn0seyJ4IjoxNzAuODQzNzUsInkiOjE0OX0seyJ4IjoxMzAuODQzNzUsInkiOjE4Nn0seyJ4IjoxMzAuODQzNzUsInkiOjIzOH0seyJ4IjoxMzAuODQzNzUsInkiOjI5MH0seyJ4IjoxMzAuODQzNzUsInkiOjM0Mn0seyJ4IjoxMzAuODQzNzUsInkiOjM5NH0seyJ4IjoxMzAuODQzNzUsInkiOjQxOX0seyJ4IjoxMzAuODQzNzUsInkiOjQ0NH0seyJ4Ijo2MjguNjE3MTg3NSwieSI6NDg4Ljg3MTU0MTM2ODE0ODc3fV0=" marker-end="url(#my-svg_flowchart-v2-pointEnd)"/><path d="M509.395,72.266L449.636,78.888C389.878,85.511,270.361,98.755,210.602,111.544C150.844,124.333,150.844,136.667,157.51,149C164.177,161.333,177.51,173.667,184.177,188.5C190.844,203.333,190.844,220.667,190.844,238C190.844,255.333,190.844,272.667,244.154,288.155C297.464,303.643,404.084,317.286,457.394,324.107L510.704,330.929" id="L_TJ_DEV_0" class="edge-thickness-normal edge-pattern-solid edge-thickness-normal edge-pattern-solid flowchart-link" style=";" data-edge="true" data-et="edge" data-id="L_TJ_DEV_0" data-points="W3sieCI6NTA5LjM5NDUzMTI1LCJ5Ijo3Mi4yNjYxNTYwODc0MDg5NH0seyJ4IjoxNTAuODQzNzUsInkiOjExMn0seyJ4IjoxNTAuODQzNzUsInkiOjE0OX0seyJ4IjoxOTAuODQzNzUsInkiOjE4Nn0seyJ4IjoxOTAuODQzNzUsInkiOjIzOH0seyJ4IjoxOTAuODQzNzUsInkiOjI5MH0seyJ4Ijo1MTQuNjcxODc1LCJ5IjozMzEuNDM2NDUzNDY3MTM1N31d" marker-end="url(#my-svg_flowchart-v2-pointEnd)"/><path d="M509.395,70.888L439.734,77.74C370.073,84.592,230.751,98.296,161.09,111.315C91.43,124.333,91.43,136.667,91.43,149C91.43,161.333,91.43,173.667,91.43,188.5C91.43,203.333,91.43,220.667,91.43,238C91.43,255.333,91.43,272.667,91.43,290C91.43,307.333,91.43,324.667,91.43,342C91.43,359.333,91.43,376.667,91.43,389.5C91.43,402.333,91.43,410.667,91.43,419C91.43,427.333,91.43,435.667,141.347,446.399C191.264,457.132,291.098,470.264,341.015,476.83L390.933,483.396" id="L_TJ_CFGM_0" class="edge-thickness-normal edge-pattern-solid edge-thickness-normal edge-pattern-solid flowchart-link" style=";" data-edge="true" data-et="edge" data-id="L_TJ_CFGM_0" data-points="W3sieCI6NTA5LjM5NDUzMTI1LCJ5Ijo3MC44ODc1OTAwNTQzMDk2N30seyJ4Ijo5MS40Mjk2ODc1LCJ5IjoxMTJ9LHsieCI6OTEuNDI5Njg3NSwieSI6MTQ5fSx7IngiOjkxLjQyOTY4NzUsInkiOjE4Nn0seyJ4Ijo5MS40Mjk2ODc1LCJ5IjoyMzh9LHsieCI6OTEuNDI5Njg3NSwieSI6MjkwfSx7IngiOjkxLjQyOTY4NzUsInkiOjM0Mn0seyJ4Ijo5MS40Mjk2ODc1LCJ5IjozOTR9LHsieCI6OTEuNDI5Njg3NSwieSI6NDE5fSx7IngiOjkxLjQyOTY4NzUsInkiOjQ0NH0seyJ4IjozOTQuODk4NDM3NSwieSI6NDgzLjkxNzE1NzQyNDYwNzd9XQ==" marker-end="url(#my-svg_flowchart-v2-pointEnd)"/><path d="M1269.274,369L1270.076,373.167C1270.877,377.333,1272.479,385.667,1273.281,394C1274.082,402.333,1274.082,410.667,1274.082,419C1274.082,427.333,1274.082,435.667,1267.319,443.671C1260.555,451.675,1247.028,459.351,1240.265,463.188L1233.501,467.026" id="L_CAT_CACHE_0" class="edge-thickness-normal edge-pattern-solid edge-thickness-normal edge-pattern-solid flowchart-link" style=";" data-edge="true" data-et="edge" data-id="L_CAT_CACHE_0" data-points="W3sieCI6MTI2OS4yNzQzMzg5NDIzMDc2LCJ5IjozNjl9LHsieCI6MTI3NC4wODIwMzEyNSwieSI6Mzk0fSx7IngiOjEyNzQuMDgyMDMxMjUsInkiOjQxOX0seyJ4IjoxMjc0LjA4MjAzMTI1LCJ5Ijo0NDR9LHsieCI6MTIzMC4wMjIxNjA0NTY3MzA3LCJ5Ijo0Njl9XQ==" marker-end="url(#my-svg_flowchart-v2-pointEnd)"/><path d="M1225.444,369L1219.481,373.167C1213.519,377.333,1201.593,385.667,1195.631,394C1189.668,402.333,1189.668,410.667,1189.668,419C1189.668,427.333,1189.668,435.667,1088.491,447.318C987.314,458.97,784.96,473.94,683.783,481.424L582.606,488.909" id="L_CAT_CFGM_0" class="edge-thickness-normal edge-pattern-solid edge-thickness-normal edge-pattern-solid flowchart-link" style=";" data-edge="true" data-et="edge" data-id="L_CAT_CFGM_0" data-points="W3sieCI6MTIyNS40NDM5NjAzMzY1Mzg2LCJ5IjozNjl9LHsieCI6MTE4OS42Njc5Njg3NSwieSI6Mzk0fSx7IngiOjExODkuNjY3OTY4NzUsInkiOjQxOX0seyJ4IjoxMTg5LjY2Nzk2ODc1LCJ5Ijo0NDR9LHsieCI6NTc4LjYxNzE4NzUsInkiOjQ4OS4yMDQ0MTI0NTkzNjI2fV0=" marker-end="url(#my-svg_flowchart-v2-pointEnd)"/><path d="M1113.337,265L1114.596,269.167C1115.855,273.333,1118.373,281.667,1119.632,294.5C1120.891,307.333,1120.891,324.667,1120.891,342C1120.891,359.333,1120.891,376.667,1120.891,389.5C1120.891,402.333,1120.891,410.667,1120.891,419C1120.891,427.333,1120.891,435.667,1065.866,446.758C1010.841,457.85,900.792,471.699,845.767,478.624L790.742,485.549" id="L_SUB_PRISMA_0" class="edge-thickness-normal edge-pattern-solid edge-thickness-normal edge-pattern-solid flowchart-link" style=";" data-edge="true" data-et="edge" data-id="L_SUB_PRISMA_0" data-points="W3sieCI6MTExMy4zMzcyODk2NjM0NjE0LCJ5IjoyNjV9LHsieCI6MTEyMC44OTA2MjUsInkiOjI5MH0seyJ4IjoxMTIwLjg5MDYyNSwieSI6MzQyfSx7IngiOjExMjAuODkwNjI1LCJ5IjozOTR9LHsieCI6MTEyMC44OTA2MjUsInkiOjQxOX0seyJ4IjoxMTIwLjg5MDYyNSwieSI6NDQ0fSx7IngiOjc4Ni43NzM0Mzc1LCJ5Ijo0ODYuMDQ4MTM4NTU0MzMwNzZ9XQ==" marker-end="url(#my-svg_flowchart-v2-pointEnd)"/><path d="M1054.662,265L1046.866,269.167C1039.07,273.333,1023.479,281.667,961.66,292.674C899.841,303.681,791.795,317.363,737.772,324.203L683.75,331.044" id="L_SUB_DEV_0" class="edge-thickness-normal edge-pattern-solid edge-thickness-normal edge-pattern-solid flowchart-link" style=";" data-edge="true" data-et="edge" data-id="L_SUB_DEV_0" data-points="W3sieCI6MTA1NC42NjIxODQ0OTUxOTI0LCJ5IjoyNjV9LHsieCI6MTAwNy44ODY3MTg3NSwieSI6MjkwfSx7IngiOjY3OS43ODEyNSwieSI6MzMxLjU0NjQ4MDk5MDAyMTh9XQ==" marker-end="url(#my-svg_flowchart-v2-pointEnd)"/><path d="M1044.278,265L1034.879,269.167C1025.481,273.333,1006.684,281.667,997.285,294.5C987.887,307.333,987.887,324.667,987.887,342C987.887,359.333,987.887,376.667,987.887,389.5C987.887,402.333,987.887,410.667,987.887,419C987.887,427.333,987.887,435.667,920.338,446.843C852.79,458.018,717.693,472.037,650.144,479.046L582.596,486.055" id="L_SUB_CFGM_0" class="edge-thickness-normal edge-pattern-solid edge-thickness-normal edge-pattern-solid flowchart-link" style=";" data-edge="true" data-et="edge" data-id="L_SUB_CFGM_0" data-points="W3sieCI6MTA0NC4yNzc1NjkxMTA1NzcsInkiOjI2NX0seyJ4Ijo5ODcuODg2NzE4NzUsInkiOjI5MH0seyJ4Ijo5ODcuODg2NzE4NzUsInkiOjM0Mn0seyJ4Ijo5ODcuODg2NzE4NzUsInkiOjM5NH0seyJ4Ijo5ODcuODg2NzE4NzUsInkiOjQxOX0seyJ4Ijo5ODcuODg2NzE4NzUsInkiOjQ0NH0seyJ4Ijo1NzguNjE3MTg3NSwieSI6NDg2LjQ2ODE0NjEzODc5Nn1d" marker-end="url(#my-svg_flowchart-v2-pointEnd)"/><path d="M422.356,369L429.756,373.167C437.157,377.333,451.957,385.667,459.358,394C466.758,402.333,466.758,410.667,466.758,419C466.758,427.333,466.758,435.667,493.083,445.515C519.408,455.363,572.057,466.726,598.382,472.408L624.707,478.089" id="L_AUTH_PRISMA_0" class="edge-thickness-normal edge-pattern-solid edge-thickness-normal edge-pattern-solid flowchart-link" style=";" data-edge="true" data-et="edge" data-id="L_AUTH_PRISMA_0" data-points="W3sieCI6NDIyLjM1NjE0NDgzMTczMDgsInkiOjM2OX0seyJ4Ijo0NjYuNzU3ODEyNSwieSI6Mzk0fSx7IngiOjQ2Ni43NTc4MTI1LCJ5Ijo0MTl9LHsieCI6NDY2Ljc1NzgxMjUsInkiOjQ0NH0seyJ4Ijo2MjguNjE3MTg3NSwieSI6NDc4LjkzMzA3MzkyOTk2MTF9XQ==" marker-end="url(#my-svg_flowchart-v2-pointEnd)"/><path d="M351.775,369L348.283,373.167C344.792,377.333,337.808,385.667,334.316,394C330.824,402.333,330.824,410.667,330.824,419C330.824,427.333,330.824,435.667,342.686,443.789C354.549,451.912,378.273,459.823,390.135,463.779L401.998,467.735" id="L_AUTH_CFGM_0" class="edge-thickness-normal edge-pattern-solid edge-thickness-normal edge-pattern-solid flowchart-link" style=";" data-edge="true" data-et="edge" data-id="L_AUTH_CFGM_0" data-points="W3sieCI6MzUxLjc3NTI0MDM4NDYxNTM2LCJ5IjozNjl9LHsieCI6MzMwLjgyNDIxODc1LCJ5IjozOTR9LHsieCI6MzMwLjgyNDIxODc1LCJ5Ijo0MTl9LHsieCI6MzMwLjgyNDIxODc1LCJ5Ijo0NDR9LHsieCI6NDA1Ljc5MjI5MjY2ODI2OTIsInkiOjQ2OX1d" marker-end="url(#my-svg_flowchart-v2-pointEnd)"/><path d="M736.676,253.458L775.211,259.548C813.746,265.639,890.816,277.819,929.352,292.576C967.887,307.333,967.887,324.667,967.887,342C967.887,359.333,967.887,376.667,967.887,389.5C967.887,402.333,967.887,410.667,967.887,419C967.887,427.333,967.887,435.667,938.355,445.735C908.823,455.804,849.759,467.608,820.228,473.51L790.696,479.412" id="L_PREF_PRISMA_0" class="edge-thickness-normal edge-pattern-solid edge-thickness-normal edge-pattern-solid flowchart-link" style=";" data-edge="true" data-et="edge" data-id="L_PREF_PRISMA_0" data-points="W3sieCI6NzM2LjY3NTc4MTI1LCJ5IjoyNTMuNDU3NzU3NTE1MzE1NTZ9LHsieCI6OTY3Ljg4NjcxODc1LCJ5IjoyOTB9LHsieCI6OTY3Ljg4NjcxODc1LCJ5IjozNDJ9LHsieCI6OTY3Ljg4NjcxODc1LCJ5IjozOTR9LHsieCI6OTY3Ljg4NjcxODc1LCJ5Ijo0MTl9LHsieCI6OTY3Ljg4NjcxODc1LCJ5Ijo0NDR9LHsieCI6Nzg2Ljc3MzQzNzUsInkiOjQ4MC4xOTYwMDk1NDgyNTkyN31d" marker-end="url(#my-svg_flowchart-v2-pointEnd)"/><path d="M736.676,254.458L771.878,260.382C807.079,266.305,877.483,278.153,912.685,292.743C947.887,307.333,947.887,324.667,947.887,342C947.887,359.333,947.887,376.667,947.887,389.5C947.887,402.333,947.887,410.667,947.887,419C947.887,427.333,947.887,435.667,971.188,444.999C994.49,454.332,1041.093,464.664,1064.395,469.83L1087.696,474.996" id="L_PREF_CACHE_0" class="edge-thickness-normal edge-pattern-solid edge-thickness-normal edge-pattern-solid flowchart-link" style=";" data-edge="true" data-et="edge" data-id="L_PREF_CACHE_0" data-points="W3sieCI6NzM2LjY3NTc4MTI1LCJ5IjoyNTQuNDU4MjA5MDMwNjkyMjJ9LHsieCI6OTQ3Ljg4NjcxODc1LCJ5IjoyOTB9LHsieCI6OTQ3Ljg4NjcxODc1LCJ5IjozNDJ9LHsieCI6OTQ3Ljg4NjcxODc1LCJ5IjozOTR9LHsieCI6OTQ3Ljg4NjcxODc1LCJ5Ijo0MTl9LHsieCI6OTQ3Ljg4NjcxODc1LCJ5Ijo0NDR9LHsieCI6MTA5MS42MDE1NjI1LCJ5Ijo0NzUuODYxNjM3MTA1NTA0Mn1d" marker-end="url(#my-svg_flowchart-v2-pointEnd)"/><path d="M617.248,265L613.911,269.167C610.574,273.333,603.9,281.667,600.563,289.333C597.227,297,597.227,304,597.227,307.5L597.227,311" id="L_PREF_DEV_0" class="edge-thickness-normal edge-pattern-solid edge-thickness-normal edge-pattern-solid flowchart-link" style=";" data-edge="true" data-et="edge" data-id="L_PREF_DEV_0" data-points="W3sieCI6NjE3LjI0Nzk3MTc1NDgwNzcsInkiOjI2NX0seyJ4Ijo1OTcuMjI2NTYyNSwieSI6MjkwfSx7IngiOjU5Ny4yMjY1NjI1LCJ5IjozMTV9XQ==" marker-end="url(#my-svg_flowchart-v2-pointEnd)"/><path d="M541.066,251.685L495.43,258.071C449.793,264.457,358.52,277.228,312.883,292.281C267.246,307.333,267.246,324.667,267.246,342C267.246,359.333,267.246,376.667,267.246,389.5C267.246,402.333,267.246,410.667,267.246,419C267.246,427.333,267.246,435.667,287.873,444.72C308.499,453.772,349.753,463.545,370.379,468.431L391.006,473.317" id="L_PREF_CFGM_0" class="edge-thickness-normal edge-pattern-solid edge-thickness-normal edge-pattern-solid flowchart-link" style=";" data-edge="true" data-et="edge" data-id="L_PREF_CFGM_0" data-points="W3sieCI6NTQxLjA2NjQwNjI1LCJ5IjoyNTEuNjg1NDE4NzY4OTIwMjd9LHsieCI6MjY3LjI0NjA5Mzc1LCJ5IjoyOTB9LHsieCI6MjY3LjI0NjA5Mzc1LCJ5IjozNDJ9LHsieCI6MjY3LjI0NjA5Mzc1LCJ5IjozOTR9LHsieCI6MjY3LjI0NjA5Mzc1LCJ5Ijo0MTl9LHsieCI6MjY3LjI0NjA5Mzc1LCJ5Ijo0NDR9LHsieCI6Mzk0Ljg5ODQzNzUsInkiOjQ3NC4yMzk0ODc0OTg4ODc4fV0=" marker-end="url(#my-svg_flowchart-v2-pointEnd)"/><path d="M654.585,369L663.437,373.167C672.289,377.333,689.992,385.667,698.844,394C707.695,402.333,707.695,410.667,707.695,419C707.695,427.333,707.695,435.667,707.695,443.333C707.695,451,707.695,458,707.695,461.5L707.695,465" id="L_DEV_PRISMA_0" class="edge-thickness-normal edge-pattern-solid edge-thickness-normal edge-pattern-solid flowchart-link" style=";" data-edge="true" data-et="edge" data-id="L_DEV_PRISMA_0" data-points="W3sieCI6NjU0LjU4NTMzNjUzODQ2MTUsInkiOjM2OX0seyJ4Ijo3MDcuNjk1MzEyNSwieSI6Mzk0fSx7IngiOjcwNy42OTUzMTI1LCJ5Ijo0MTl9LHsieCI6NzA3LjY5NTMxMjUsInkiOjQ0NH0seyJ4Ijo3MDcuNjk1MzEyNSwieSI6NDY5fV0=" marker-end="url(#my-svg_flowchart-v2-pointEnd)"/><path d="M539.868,369L531.016,373.167C522.164,377.333,504.461,385.667,495.609,394C486.758,402.333,486.758,410.667,486.758,419C486.758,427.333,486.758,435.667,486.758,443.333C486.758,451,486.758,458,486.758,461.5L486.758,465" id="L_DEV_CFGM_0" class="edge-thickness-normal edge-pattern-solid edge-thickness-normal edge-pattern-solid flowchart-link" style=";" data-edge="true" data-et="edge" data-id="L_DEV_CFGM_0" data-points="W3sieCI6NTM5Ljg2Nzc4ODQ2MTUzODUsInkiOjM2OX0seyJ4Ijo0ODYuNzU3ODEyNSwieSI6Mzk0fSx7IngiOjQ4Ni43NTc4MTI1LCJ5Ijo0MTl9LHsieCI6NDg2Ljc1NzgxMjUsInkiOjQ0NH0seyJ4Ijo0ODYuNzU3ODEyNSwieSI6NDY5fV0=" marker-end="url(#my-svg_flowchart-v2-pointEnd)"/><path d="M833.66,369L833.66,373.167C833.66,377.333,833.66,385.667,833.66,394C833.66,402.333,833.66,410.667,833.66,419C833.66,427.333,833.66,435.667,791.812,446.106C749.964,456.546,666.269,469.092,624.421,475.365L582.573,481.637" id="L_HEALTH_CFGM_0" class="edge-thickness-normal edge-pattern-solid edge-thickness-normal edge-pattern-solid flowchart-link" style=";" data-edge="true" data-et="edge" data-id="L_HEALTH_CFGM_0" data-points="W3sieCI6ODMzLjY2MDE1NjI1LCJ5IjozNjl9LHsieCI6ODMzLjY2MDE1NjI1LCJ5IjozOTR9LHsieCI6ODMzLjY2MDE1NjI1LCJ5Ijo0MTl9LHsieCI6ODMzLjY2MDE1NjI1LCJ5Ijo0NDR9LHsieCI6NTc4LjYxNzE4NzUsInkiOjQ4Mi4yMzA0NTQ4MDY0OTA0Nn1d" marker-end="url(#my-svg_flowchart-v2-pointEnd)"/></g><g class="edgeLabels"><g class="edgeLabel" transform="translate(1264.08203125, 238)"><g class="label" data-id="L_TJ_CAT_0" transform="translate(-27.1953125, -12)"><foreignObject width="54.390625" height="24"><div xmlns="http://www.w3.org/1999/xhtml" class="labelBkg" style="display: table-cell; white-space: nowrap; line-height: 1.5; max-width: 200px; text-align: center;"><span class="edgeLabel"><p>imports</p></span></div></foreignObject></g></g><g class="edgeLabel" transform="translate(1105.1796875, 149)"><g class="label" data-id="L_TJ_SUB_0" transform="translate(-27.1953125, -12)"><foreignObject width="54.390625" height="24"><div xmlns="http://www.w3.org/1999/xhtml" class="labelBkg" style="display: table-cell; white-space: nowrap; line-height: 1.5; max-width: 200px; text-align: center;"><span class="edgeLabel"><p>imports</p></span></div></foreignObject></g></g><g class="edgeLabel"><g class="label" data-id="L_TJ_PRISMA_0" transform="translate(0, 0)"><foreignObject width="0" height="0"><div xmlns="http://www.w3.org/1999/xhtml" class="labelBkg" style="display: table-cell; white-space: nowrap; line-height: 1.5; max-width: 200px; text-align: center;"><span class="edgeLabel"></span></div></foreignObject></g></g><g class="edgeLabel"><g class="label" data-id="L_TJ_DEV_0" transform="translate(0, 0)"><foreignObject width="0" height="0"><div xmlns="http://www.w3.org/1999/xhtml" class="labelBkg" style="display: table-cell; white-space: nowrap; line-height: 1.5; max-width: 200px; text-align: center;"><span class="edgeLabel"></span></div></foreignObject></g></g><g class="edgeLabel"><g class="label" data-id="L_TJ_CFGM_0" transform="translate(0, 0)"><foreignObject width="0" height="0"><div xmlns="http://www.w3.org/1999/xhtml" class="labelBkg" style="display: table-cell; white-space: nowrap; line-height: 1.5; max-width: 200px; text-align: center;"><span class="edgeLabel"></span></div></foreignObject></g></g><g class="edgeLabel"><g class="label" data-id="L_CAT_CACHE_0" transform="translate(0, 0)"><foreignObject width="0" height="0"><div xmlns="http://www.w3.org/1999/xhtml" class="labelBkg" style="display: table-cell; white-space: nowrap; line-height: 1.5; max-width: 200px; text-align: center;"><span class="edgeLabel"></span></div></foreignObject></g></g><g class="edgeLabel"><g class="label" data-id="L_CAT_CFGM_0" transform="translate(0, 0)"><foreignObject width="0" height="0"><div xmlns="http://www.w3.org/1999/xhtml" class="labelBkg" style="display: table-cell; white-space: nowrap; line-height: 1.5; max-width: 200px; text-align: center;"><span class="edgeLabel"></span></div></foreignObject></g></g><g class="edgeLabel"><g class="label" data-id="L_SUB_PRISMA_0" transform="translate(0, 0)"><foreignObject width="0" height="0"><div xmlns="http://www.w3.org/1999/xhtml" class="labelBkg" style="display: table-cell; white-space: nowrap; line-height: 1.5; max-width: 200px; text-align: center;"><span class="edgeLabel"></span></div></foreignObject></g></g><g class="edgeLabel"><g class="label" data-id="L_SUB_DEV_0" transform="translate(0, 0)"><foreignObject width="0" height="0"><div xmlns="http://www.w3.org/1999/xhtml" class="labelBkg" style="display: table-cell; white-space: nowrap; line-height: 1.5; max-width: 200px; text-align: center;"><span class="edgeLabel"></span></div></foreignObject></g></g><g class="edgeLabel"><g class="label" data-id="L_SUB_CFGM_0" transform="translate(0, 0)"><foreignObject width="0" height="0"><div xmlns="http://www.w3.org/1999/xhtml" class="labelBkg" style="display: table-cell; white-space: nowrap; line-height: 1.5; max-width: 200px; text-align: center;"><span class="edgeLabel"></span></div></foreignObject></g></g><g class="edgeLabel"><g class="label" data-id="L_AUTH_PRISMA_0" transform="translate(0, 0)"><foreignObject width="0" height="0"><div xmlns="http://www.w3.org/1999/xhtml" class="labelBkg" style="display: table-cell; white-space: nowrap; line-height: 1.5; max-width: 200px; text-align: center;"><span class="edgeLabel"></span></div></foreignObject></g></g><g class="edgeLabel"><g class="label" data-id="L_AUTH_CFGM_0" transform="translate(0, 0)"><foreignObject width="0" height="0"><div xmlns="http://www.w3.org/1999/xhtml" class="labelBkg" style="display: table-cell; white-space: nowrap; line-height: 1.5; max-width: 200px; text-align: center;"><span class="edgeLabel"></span></div></foreignObject></g></g><g class="edgeLabel"><g class="label" data-id="L_PREF_PRISMA_0" transform="translate(0, 0)"><foreignObject width="0" height="0"><div xmlns="http://www.w3.org/1999/xhtml" class="labelBkg" style="display: table-cell; white-space: nowrap; line-height: 1.5; max-width: 200px; text-align: center;"><span class="edgeLabel"></span></div></foreignObject></g></g><g class="edgeLabel"><g class="label" data-id="L_PREF_CACHE_0" transform="translate(0, 0)"><foreignObject width="0" height="0"><div xmlns="http://www.w3.org/1999/xhtml" class="labelBkg" style="display: table-cell; white-space: nowrap; line-height: 1.5; max-width: 200px; text-align: center;"><span class="edgeLabel"></span></div></foreignObject></g></g><g class="edgeLabel"><g class="label" data-id="L_PREF_DEV_0" transform="translate(0, 0)"><foreignObject width="0" height="0"><div xmlns="http://www.w3.org/1999/xhtml" class="labelBkg" style="display: table-cell; white-space: nowrap; line-height: 1.5; max-width: 200px; text-align: center;"><span class="edgeLabel"></span></div></foreignObject></g></g><g class="edgeLabel"><g class="label" data-id="L_PREF_CFGM_0" transform="translate(0, 0)"><foreignObject width="0" height="0"><div xmlns="http://www.w3.org/1999/xhtml" class="labelBkg" style="display: table-cell; white-space: nowrap; line-height: 1.5; max-width: 200px; text-align: center;"><span class="edgeLabel"></span></div></foreignObject></g></g><g class="edgeLabel"><g class="label" data-id="L_DEV_PRISMA_0" transform="translate(0, 0)"><foreignObject width="0" height="0"><div xmlns="http://www.w3.org/1999/xhtml" class="labelBkg" style="display: table-cell; white-space: nowrap; line-height: 1.5; max-width: 200px; text-align: center;"><span class="edgeLabel"></span></div></foreignObject></g></g><g class="edgeLabel"><g class="label" data-id="L_DEV_CFGM_0" transform="translate(0, 0)"><foreignObject width="0" height="0"><div xmlns="http://www.w3.org/1999/xhtml" class="labelBkg" style="display: table-cell; white-space: nowrap; line-height: 1.5; max-width: 200px; text-align: center;"><span class="edgeLabel"></span></div></foreignObject></g></g><g class="edgeLabel"><g class="label" data-id="L_HEALTH_CFGM_0" transform="translate(0, 0)"><foreignObject width="0" height="0"><div xmlns="http://www.w3.org/1999/xhtml" class="labelBkg" style="display: table-cell; white-space: nowrap; line-height: 1.5; max-width: 200px; text-align: center;"><span class="edgeLabel"></span></div></foreignObject></g></g></g><g class="nodes"><g class="node default" id="flowchart-TJ-0" transform="translate(620.08203125, 60)"><rect class="basic label-container" style="fill:#ffc !important;stroke:#cc0 !important" x="-110.6875" y="-27" width="221.375" height="54"/><g class="label" style="" transform="translate(-80.6875, -12)"><rect/><foreignObject width="161.375" height="24"><div xmlns="http://www.w3.org/1999/xhtml" style="display: table-cell; white-space: nowrap; line-height: 1.5; max-width: 200px; text-align: center;"><span class="nodeLabel"><p>TranslationJobsModule</p></span></div></foreignObject></g></g><g class="node default" id="flowchart-CAT-1" transform="translate(1264.08203125, 342)"><rect class="basic label-container" style="fill:#dfd !important;stroke:#0a0 !important" x="-82.5546875" y="-27" width="165.109375" height="54"/><g class="label" style="" transform="translate(-52.5546875, -12)"><rect/><foreignObject width="105.109375" height="24"><div xmlns="http://www.w3.org/1999/xhtml" style="display: table-cell; white-space: nowrap; line-height: 1.5; max-width: 200px; text-align: center;"><span class="nodeLabel"><p>CatalogModule</p></span></div></foreignObject></g></g><g class="node default" id="flowchart-SUB-2" transform="translate(1105.1796875, 238)"><rect class="basic label-container" style="fill:#dfd !important;stroke:#0a0 !important" x="-86.78125" y="-27" width="173.5625" height="54"/><g class="label" style="" transform="translate(-56.78125, -12)"><rect/><foreignObject width="113.5625" height="24"><div xmlns="http://www.w3.org/1999/xhtml" style="display: table-cell; white-space: nowrap; line-height: 1.5; max-width: 200px; text-align: center;"><span class="nodeLabel"><p>SubtitlesModule</p></span></div></foreignObject></g></g><g class="node default" id="flowchart-AUTH-3" transform="translate(374.40234375, 342)"><rect class="basic label-container" style="" x="-72.15625" y="-27" width="144.3125" height="54"/><g class="label" style="" transform="translate(-42.15625, -12)"><rect/><foreignObject width="84.3125" height="24"><div xmlns="http://www.w3.org/1999/xhtml" style="display: table-cell; white-space: nowrap; line-height: 1.5; max-width: 200px; text-align: center;"><span class="nodeLabel"><p>AuthModule</p></span></div></foreignObject></g></g><g class="node default" id="flowchart-PREF-4" transform="translate(638.87109375, 238)"><rect class="basic label-container" style="" x="-97.8046875" y="-27" width="195.609375" height="54"/><g class="label" style="" transform="translate(-67.8046875, -12)"><rect/><foreignObject width="135.609375" height="24"><div xmlns="http://www.w3.org/1999/xhtml" style="display: table-cell; white-space: nowrap; line-height: 1.5; max-width: 200px; text-align: center;"><span class="nodeLabel"><p>PreferencesModule</p></span></div></foreignObject></g></g><g class="node default" id="flowchart-DEV-5" transform="translate(597.2265625, 342)"><rect class="basic label-container" style="" x="-82.5546875" y="-27" width="165.109375" height="54"/><g class="label" style="" transform="translate(-52.5546875, -12)"><rect/><foreignObject width="105.109375" height="24"><div xmlns="http://www.w3.org/1999/xhtml" style="display: table-cell; white-space: nowrap; line-height: 1.5; max-width: 200px; text-align: center;"><span class="nodeLabel"><p>DevicesModule</p></span></div></foreignObject></g></g><g class="node default" id="flowchart-HEALTH-6" transform="translate(833.66015625, 342)"><rect class="basic label-container" style="" x="-79.2265625" y="-27" width="158.453125" height="54"/><g class="label" style="" transform="translate(-49.2265625, -12)"><rect/><foreignObject width="98.453125" height="24"><div xmlns="http://www.w3.org/1999/xhtml" style="display: table-cell; white-space: nowrap; line-height: 1.5; max-width: 200px; text-align: center;"><span class="nodeLabel"><p>HealthModule</p></span></div></foreignObject></g></g><g class="node default" id="flowchart-PRISMA-7" transform="translate(707.6953125, 496)"><rect class="basic label-container" style="" x="-79.078125" y="-27" width="158.15625" height="54"/><g class="label" style="" transform="translate(-49.078125, -12)"><rect/><foreignObject width="98.15625" height="24"><div xmlns="http://www.w3.org/1999/xhtml" style="display: table-cell; white-space: nowrap; line-height: 1.5; max-width: 200px; text-align: center;"><span class="nodeLabel"><p>PrismaModule</p></span></div></foreignObject></g></g><g class="node default" id="flowchart-CACHE-8" transform="translate(1182.4375, 496)"><rect class="basic label-container" style="" x="-90.8359375" y="-27" width="181.671875" height="54"/><g class="label" style="" transform="translate(-60.8359375, -12)"><rect/><foreignObject width="121.671875" height="24"><div xmlns="http://www.w3.org/1999/xhtml" style="display: table-cell; white-space: nowrap; line-height: 1.5; max-width: 200px; text-align: center;"><span class="nodeLabel"><p>AppCacheModule</p></span></div></foreignObject></g></g><g class="node default" id="flowchart-CFGM-9" transform="translate(486.7578125, 496)"><rect class="basic label-container" style="" x="-91.859375" y="-27" width="183.71875" height="54"/><g class="label" style="" transform="translate(-61.859375, -12)"><rect/><foreignObject width="123.71875" height="24"><div xmlns="http://www.w3.org/1999/xhtml" style="display: table-cell; white-space: nowrap; line-height: 1.5; max-width: 200px; text-align: center;"><span class="nodeLabel"><p>AppConfigModule</p></span></div></foreignObject></g></g></g></g></g></svg>